Coordinates
version=1
nRows=9
nColumns=24
inDegrees=yes

Units are S.I. units (second, meters, Newtons, ...)
Angles are in degrees.

endheader
time	pelvis_tilt	pelvis_list	pelvis_rotation	pelvis_tx	pelvis_ty	pelvis_tz	hip_flexion_r	hip_adduction_r	hip_rotation_r	knee_angle_r	ankle_angle_r	subtalar_angle_r	mtp_angle_r	hip_flexion_l	hip_adduction_l	hip_rotation_l	knee_angle_l	ankle_angle_l	subtalar_angle_l	mtp_angle_l	lumbar_extension	lumbar_bending	lumbar_rotation
      0.76650000	      7.32075981	     -4.15129773	      4.03583818	     -0.51194384	      1.01796213	      0.32275862	     -0.04973042	      9.23643176	     -4.62162922	    -10.67347680	      2.51704603	    -15.66434006	     -4.47191918	      8.45555398	     -4.45386359	      1.46860342	    -66.55815524	     -9.03151649	     -7.98206541	      5.80870412	     -7.75564308	      8.09253882	      1.87180072
      0.77066667	      7.36815121	     -4.04172245	      4.00788905	     -0.50699186	      1.01859102	      0.32300767	     -0.60669203	      9.16417288	     -4.57632626	    -10.33928937	      2.60551682	    -15.58389979	     -4.48573595	      9.01402014	     -4.25858168	      1.56421645	    -66.49190960	     -8.28024307	     -8.25857108	      5.71221114	     -7.88332952	      7.94928170	      1.96144257
      0.77483333	      7.39163651	     -3.92661563	      3.97711665	     -0.50203830	      1.01918068	      0.32325123	     -1.14838606	      9.08559415	     -4.49930585	     -9.98393935	      2.70824453	    -15.50653867	     -4.50471435	      9.58172417	     -4.05026511	      1.66396187	    -66.35874027	     -7.58612995	     -8.54528198	      5.59054411	     -7.97237641	      7.81648556	      2.06378550
      0.77900000	      7.39258201	     -3.80801935	      3.94399005	     -0.49707627	      1.01971390	      0.32348136	     -1.66690697	      8.99961243	     -4.42481490	     -9.62781725	      2.83711491	    -15.43650020	     -4.51411942	     10.15973591	     -3.83266940	      1.76571590	    -66.16954779	     -6.95655206	     -8.83128084	      5.52902487	     -8.01400804	      7.69022145	      2.13573638
      0.78316667	      7.42053488	     -3.69773515	      3.88045559	     -0.49214208	      1.02023146	      0.32378160	     -2.20183876	      8.92391111	     -4.32854919	     -9.29573377	      2.93029089	    -15.37102249	     -4.53844250	     10.68900464	     -3.64479326	      1.81717902	    -65.92918830	     -6.28984877	     -9.14445944	      5.39982942	     -8.13083351	      7.53389633	      2.26132561
      0.78733333	      7.40490443	     -3.57572676	      3.82544013	     -0.48721281	      1.02066767	      0.32403583	     -2.69230223	      8.82932630	     -4.23988219	     -8.95772128	      3.05827112	    -15.30397694	     -4.55063895	     11.25414833	     -3.42685011	      1.89586063	    -65.63347476	     -5.68633032	     -9.42694250	      5.33217615	     -8.15959652	      7.40663164	      2.34369854
      0.79150000	      7.42490439	     -3.46306981	      3.73941385	     -0.48230404	      1.02112413	      0.32437181	     -3.23263240	      8.75609843	     -4.04422102	     -8.59982785	      3.19271573	    -15.38709916	     -5.29912998	     11.76252078	     -3.24210704	      1.92216418	    -65.29426428	     -5.04930260	     -9.68823377	      2.01533489	     -8.26681344	      7.25063476	      2.56085219
      0.79566667	      7.38415575	     -3.35739346	      3.68177632	     -0.47738950	      1.02144401	      0.32465323	     -3.68395162	      8.67532429	     -3.96944797	     -8.27695021	      3.30012579	    -15.28665844	     -5.29912408	     12.33354085	     -3.05415893	      1.98908178	    -64.90919459	     -4.48126606	     -9.93568596	      2.01909220	     -8.27221818	      7.10351045	      2.60663198
      0.79983333	      7.41808913	     -3.21715823	      3.56371547	     -0.47248969	      1.02185811	      0.32498566	     -4.21178868	      8.55141905	     -3.85689995	     -7.97149604	      3.39154343	    -15.14489723	     -5.31579604	     12.77653198	     -2.84780755	      1.97293921	    -64.43670449	     -3.93053444	    -10.23653950	      1.99719543	     -8.39699722	      6.93810303	      2.79900406
